PathFileType	4	(X/Y/Z)
DataRate	CameraRate	NumFrames	NumMarkers	Units	OrigDataRate	OrigDataStartFrame	OrigNumFrames	
	120.0	120.0	11	39	mm	120.0	145	231
Frame#	Time	midhip	hip_r	hip_l	knee_r	knee_l	ankle_r	ankle_l	midasis	asis_r	asis_l	psis_r	psis_l	epicondLat_r	epicondLat_l	epicondMed_r	epicondMed_l	malleolusLat_r	malleolusLat_l	malleolusMedv_r	malleolusMedv_l	heel_r	heel_l	sternalnotch	xyphoidprocess	neck	subclavicle_r	subclavicle_l	toe_r	toe_l	thighwand_r	thighwand_l	upperleg1_r	upperleg1_l	upperleg2_r	upperleg2_l	shankwand_r	shankwand_l	lowerleg1_r	lowerleg1_l
	X1	Y1	Z1	X2	Y2	Z2	X3	Y3	Z3	X4	Y4	Z4	X5	Y5	Z5	X6	Y6	Z6	X7	Y7	Z7	X8	Y8	Z8	X9	Y9	Z9	X10	Y10	Z10	X11	Y11	Z11	X12	Y12	Z12	X13	Y13	Z13	X14	Y14	Z14	X15	Y15	Z15	X16	Y16	Z16	X17	Y17	Z17	X18	Y18	Z18	X19	Y19	Z19	X20	Y20	Z20	X21	Y21	Z21	X22	Y22	Z22	X23	Y23	Z23	X24	Y24	Z24	X25	Y25	Z25	X26	Y26	Z26	X27	Y27	Z27	X28	Y28	Z28	X29	Y29	Z29	X30	Y30	Z30	X31	Y31	Z31	X32	Y32	Z32	X33	Y33	Z33	X34	Y34	Z34	X35	Y35	Z35	X36	Y36	Z36	X37	Y37	Z37	X38	Y38	Z38	X39	Y39	Z39

	145	1.20833	1431.679	636.514	-340.114	1440.564	645.044	-285.966	1446.592	645.470	-403.255	1419.483	341.381	-265.268	1416.623	343.553	-413.806	1388.445	54.482	-244.476	1401.529	56.444	-430.787	1505.396	689.611	-341.272	1500.917	689.295	-254.132	1509.875	689.928	-428.413	1378.074	750.448	-302.651	1382.812	751.412	-387.838	1415.453	344.775	-219.571	1410.375	345.834	-461.343	1420.177	340.691	-309.969	1412.000	341.995	-368.976	1379.801	57.751	-212.276	1389.154	58.866	-460.741	1394.643	53.473	-271.463	1412.156	53.724	-399.877	1347.948	38.698	-260.993	1352.030	38.588	-421.609	1449.295	1023.181	-332.139	1542.097	915.606	-332.702	1368.534	1040.240	-339.559	1466.096	1016.976	-294.916	1470.597	1017.095	-382.917	1476.324	40.939	-226.822	1488.332	38.790	-459.704	1545.114	427.021	-282.375	1473.445	418.322	-515.260	1469.701	485.956	-243.686	1476.115	478.396	-433.187	1456.441	400.033	-238.793	1467.683	394.333	-417.589	1404.988	146.356	-147.954	1501.973	162.937	-412.685	1403.854	200.045	-214.086	1438.520	220.320	-424.869
	146	1.21667	1431.745	636.544	-340.196	1440.611	645.117	-286.026	1446.622	645.486	-403.316	1419.532	341.439	-265.332	1416.644	343.539	-413.900	1388.490	54.480	-244.485	1401.611	56.454	-430.836	1505.410	689.691	-341.364	1500.942	689.417	-254.186	1509.878	689.966	-428.543	1378.092	750.448	-302.738	1382.824	751.394	-387.971	1415.420	344.838	-219.643	1410.271	345.837	-461.419	1420.121	340.933	-309.849	1412.181	342.095	-369.065	1379.789	57.759	-212.302	1389.156	58.871	-460.757	1394.624	53.530	-271.525	1412.143	53.752	-399.885	1348.003	38.679	-261.036	1352.053	38.563	-421.622	1449.177	1023.103	-332.330	1541.950	915.505	-333.107	1368.418	1040.202	-339.676	1465.960	1016.804	-295.159	1470.501	1017.133	-383.067	1476.325	40.947	-226.811	1488.323	38.797	-459.742	1545.143	427.155	-282.480	1473.250	418.452	-515.550	1469.855	486.254	-243.891	1476.073	478.507	-433.473	1456.499	400.398	-238.816	1467.723	394.448	-417.826	1404.863	146.398	-147.974	1501.989	162.949	-412.855	1404.291	200.076	-214.042	1438.584	220.374	-425.066
	147	1.22500	1431.800	636.573	-340.260	1440.649	645.185	-286.064	1446.653	645.499	-403.355	1419.538	341.508	-265.383	1416.707	343.535	-413.964	1388.521	54.481	-244.489	1401.699	56.462	-430.874	1505.417	689.772	-341.428	1500.953	689.538	-254.211	1509.881	690.006	-428.646	1378.096	750.442	-302.814	1382.814	751.375	-388.092	1415.374	344.908	-219.698	1410.216	345.848	-461.467	1420.112	341.159	-309.766	1412.360	342.191	-369.082	1379.783	57.767	-212.316	1389.169	58.878	-460.764	1394.647	53.557	-271.551	1412.186	53.751	-399.899	1348.042	38.672	-261.071	1352.082	38.543	-421.625	1449.141	1023.220	-332.448	1542.085	915.769	-333.078	1368.289	1040.187	-339.802	1465.967	1017.028	-295.239	1470.428	1017.174	-383.233	1476.325	40.952	-226.792	1488.325	38.802	-459.769	1545.148	427.262	-282.483	1473.132	418.609	-515.806	1469.993	486.572	-244.045	1476.088	478.590	-433.714	1456.534	400.670	-238.824	1467.789	394.510	-417.987	1404.769	146.440	-147.988	1502.031	162.940	-412.995	1404.240	200.135	-214.085	1438.692	220.377	-425.196
	148	1.23333	1431.852	636.606	-340.296	1440.683	645.254	-286.076	1446.695	645.515	-403.367	1419.503	341.586	-265.423	1416.792	343.543	-413.997	1388.536	54.486	-244.485	1401.788	56.468	-430.903	1505.422	689.862	-341.458	1500.949	689.667	-254.209	1509.894	690.056	-428.707	1378.088	750.432	-302.878	1382.789	751.355	-388.194	1415.313	344.985	-219.740	1410.193	345.868	-461.485	1420.117	341.322	-309.653	1412.686	342.209	-369.154	1379.781	57.776	-212.317	1389.189	58.885	-460.764	1394.658	53.577	-271.545	1412.246	53.744	-399.914	1348.061	38.673	-261.097	1352.108	38.532	-421.621	1449.105	1023.459	-332.521	1542.299	916.223	-332.748	1368.185	1040.207	-339.935	1465.992	1017.492	-295.212	1470.341	1017.210	-383.397	1476.324	40.956	-226.766	1488.332	38.809	-459.783	1545.127	427.349	-282.373	1473.057	418.776	-516.014	1470.062	486.843	-244.111	1476.156	478.655	-433.869	1456.522	400.862	-238.768	1467.963	394.623	-418.172	1404.701	146.486	-147.993	1502.090	162.912	-413.089	1404.198	200.179	-214.102	1438.804	220.319	-425.246
	149	1.24167	1431.911	636.643	-340.300	1440.710	645.330	-286.065	1446.757	645.536	-403.354	1419.436	341.674	-265.457	1416.880	343.565	-413.993	1388.535	54.493	-244.475	1401.871	56.474	-430.922	1505.426	689.966	-341.451	1500.927	689.812	-254.183	1509.925	690.120	-428.718	1378.068	750.421	-302.931	1382.756	751.330	-388.275	1415.238	345.069	-219.775	1410.187	345.900	-461.466	1420.082	341.459	-309.481	1413.066	342.212	-369.196	1379.775	57.786	-212.309	1389.212	58.895	-460.757	1394.672	53.611	-271.524	1412.294	53.741	-399.913	1348.060	38.673	-261.111	1352.127	38.528	-421.611	1449.019	1023.626	-332.659	1542.321	916.483	-332.653	1368.127	1040.260	-340.080	1465.936	1017.779	-295.282	1470.229	1017.256	-383.596	1476.318	40.962	-226.735	1488.342	38.819	-459.785	1545.087	427.423	-282.161	1472.995	418.933	-516.163	1470.048	487.080	-244.096	1476.260	478.714	-433.970	1456.434	401.045	-238.638	1468.179	394.741	-418.328	1404.655	146.533	-147.989	1502.153	162.874	-413.122	1404.130	200.234	-214.090	1438.891	220.279	-425.265
	150	1.25000	1431.982	636.686	-340.276	1440.730	645.416	-286.037	1446.845	645.566	-403.323	1419.347	341.774	-265.498	1416.957	343.607	-413.948	1388.524	54.502	-244.464	1401.943	56.482	-430.931	1505.432	690.090	-341.409	1500.883	689.979	-254.136	1509.982	690.202	-428.683	1378.032	750.413	-302.975	1382.725	751.301	-388.335	1415.150	345.160	-219.815	1410.184	345.948	-461.411	1419.991	341.577	-309.161	1413.377	342.161	-369.079	1379.764	57.797	-212.298	1389.234	58.910	-460.745	1394.669	53.640	-271.491	1412.338	53.728	-399.903	1348.045	38.666	-261.115	1352.139	38.530	-421.593	1448.920	1023.705	-332.816	1542.212	916.554	-332.786	1368.078	1040.330	-340.245	1465.847	1017.877	-295.411	1470.113	1017.306	-383.788	1476.308	40.973	-226.703	1488.350	38.833	-459.778	1545.039	427.491	-281.874	1472.921	419.065	-516.245	1470.094	487.468	-244.195	1476.355	478.752	-433.986	1456.285	401.224	-238.447	1468.340	394.678	-418.326	1404.621	146.580	-147.985	1502.212	162.835	-413.095	1404.069	200.282	-214.074	1438.955	220.246	-425.225
	151	1.25833	1432.070	636.736	-340.238	1440.746	645.511	-286.001	1446.961	645.609	-403.281	1419.246	341.885	-265.553	1417.008	343.676	-413.862	1388.505	54.512	-244.460	1402.001	56.493	-430.930	1505.442	690.234	-341.340	1500.817	690.161	-254.066	1510.067	690.307	-428.613	1377.981	750.409	-303.015	1382.698	751.271	-388.381	1415.049	345.259	-219.870	1410.173	346.017	-461.315	1419.887	341.707	-308.860	1413.797	342.035	-368.987	1379.747	57.810	-212.293	1389.253	58.930	-460.726	1394.643	53.663	-271.456	1412.362	53.720	-399.888	1348.022	38.648	-261.114	1352.143	38.533	-421.566	1448.820	1023.801	-332.950	1542.112	916.649	-332.907	1368.016	1040.414	-340.446	1465.761	1017.991	-295.525	1469.994	1017.378	-383.953	1476.294	40.988	-226.679	1488.355	38.852	-459.768	1544.998	427.557	-281.547	1472.811	419.154	-516.257	1470.135	487.841	-244.269	1476.419	478.792	-433.942	1456.109	401.394	-238.251	1468.548	394.649	-418.338	1404.591	146.623	-147.988	1502.258	162.804	-413.016	1403.988	200.328	-214.061	1439.003	220.237	-425.131
	152	1.26667	1432.167	636.791	-340.198	1440.758	645.606	-285.963	1447.106	645.663	-403.236	1419.149	342.001	-265.634	1417.033	343.767	-413.724	1388.486	54.518	-244.466	1402.046	56.507	-430.916	1505.460	690.388	-341.247	1500.736	690.346	-253.975	1510.185	690.430	-428.520	1377.911	750.412	-303.059	1382.676	751.245	-388.423	1414.945	345.360	-219.950	1410.154	346.100	-461.171	1419.783	341.892	-308.837	1413.952	342.080	-368.888	1379.724	57.821	-212.301	1389.272	58.956	-460.700	1394.637	53.679	-271.434	1412.373	53.727	-399.862	1347.995	38.618	-261.113	1352.144	38.537	-421.524	1448.690	1023.918	-333.120	1542.018	916.798	-332.992	1367.959	1040.481	-340.665	1465.628	1018.140	-295.663	1469.872	1017.465	-384.142	1476.275	41.003	-226.668	1488.359	38.874	-459.753	1544.984	427.620	-281.215	1472.657	419.192	-516.202	1469.985	487.837	-243.998	1476.477	478.841	-433.923	1455.911	401.581	-238.101	1468.611	394.698	-418.339	1404.562	146.662	-148.005	1502.291	162.783	-412.892	1403.921	200.379	-214.066	1439.049	220.261	-425.022
	153	1.27500	1432.262	636.848	-340.164	1440.763	645.692	-285.933	1447.275	645.724	-403.198	1419.078	342.115	-265.746	1417.045	343.872	-413.522	1388.473	54.518	-244.482	1402.089	56.524	-430.883	1505.486	690.541	-341.140	1500.639	690.518	-253.875	1510.332	690.564	-428.405	1377.823	750.419	-303.114	1382.655	751.227	-388.470	1414.854	345.454	-220.063	1410.133	346.187	-460.965	1419.729	342.081	-308.903	1413.928	342.239	-368.710	1379.699	57.829	-212.322	1389.297	58.988	-460.658	1394.628	53.675	-271.442	1412.393	53.727	-399.832	1347.969	38.578	-261.112	1352.144	38.543	-421.456	1448.525	1024.030	-333.330	1541.898	916.950	-333.026	1367.896	1040.529	-340.859	1465.430	1018.291	-295.828	1469.757	1017.543	-384.352	1476.256	41.012	-226.672	1488.369	38.891	-459.726	1545.016	427.674	-280.908	1472.476	419.187	-516.095	1469.834	487.806	-243.763	1476.514	478.895	-433.932	1455.728	401.785	-238.014	1468.567	394.750	-418.282	1404.524	146.689	-148.041	1502.316	162.771	-412.723	1403.927	200.412	-214.110	1439.092	220.291	-424.910
	154	1.28333	1432.343	636.904	-340.149	1440.754	645.760	-285.921	1447.461	645.787	-403.174	1419.054	342.219	-265.897	1417.045	343.984	-413.250	1388.473	54.507	-244.509	1402.137	56.547	-430.820	1505.514	690.681	-341.025	1500.523	690.662	-253.772	1510.504	690.701	-428.278	1377.712	750.430	-303.186	1382.631	751.221	-388.531	1414.793	345.537	-220.215	1410.111	346.267	-460.692	1419.740	342.221	-308.958	1414.029	342.321	-368.511	1379.676	57.832	-212.356	1389.334	59.031	-460.588	1394.645	53.633	-271.489	1412.418	53.704	-399.789	1347.949	38.535	-261.115	1352.146	38.556	-421.353	1448.389	1024.117	-333.538	1541.768	917.042	-333.087	1367.813	1040.596	-341.040	1465.262	1018.403	-296.002	1469.665	1017.598	-384.553	1476.242	41.011	-226.689	1488.388	38.902	-459.677	1545.098	427.710	-280.643	1472.278	419.164	-515.945	1469.777	487.920	-243.739	1476.511	478.939	-433.903	1455.571	401.944	-237.988	1468.577	394.807	-418.214	1404.473	146.695	-148.102	1502.334	162.770	-412.505	1403.400	200.437	-214.267	1439.113	220.318	-424.729
	155	1.29167	1432.400	636.954	-340.158	1440.722	645.803	-285.930	1447.651	645.849	-403.170	1419.086	342.307	-266.088	1417.038	344.099	-412.907	1388.491	54.485	-244.545	1402.195	56.581	-430.716	1505.537	690.801	-340.906	1500.381	690.767	-253.669	1510.692	690.836	-428.143	1377.576	750.437	-303.282	1382.600	751.222	-388.613	1414.774	345.601	-220.410	1410.084	346.335	-460.348	1419.852	342.299	-309.126	1415.413	341.830	-368.535	1379.660	57.829	-212.403	1389.383	59.086	-460.479	1394.733	53.559	-271.556	1412.491	53.656	-399.718	1347.935	38.494	-261.128	1352.148	38.573	-421.211	1448.292	1024.161	-333.707	1541.620	917.041	-333.155	1367.735	1040.675	-341.218	1465.134	1018.450	-296.148	1469.605	1017.618	-384.714	1476.234	40.996	-226.714	1488.416	38.906	-459.599	1545.221	427.726	-280.417	1472.071	419.133	-515.749	1469.741	487.971	-243.733	1476.508	478.925	-433.765	1455.473	402.002	-238.034	1469.279	395.083	-418.439	1404.419	146.682	-148.194	1502.349	162.779	-412.239	1402.359	200.457	-214.532	1439.112	220.328	-424.407
